<?xml version="1.0" encoding="UTF-8" standalone="no"?>
<!DOCTYPE svg PUBLIC "-//W3C//DTD SVG 1.1//EN" "http://www.w3.org/Graphics/SVG/1.1/DTD/svg11.dtd">
<!-- Created with Vectornator (http://vectornator.io/) -->
<svg height="100%" stroke-miterlimit="10" style="fill-rule:nonzero;clip-rule:evenodd;stroke-linecap:round;stroke-linejoin:round;" version="1.1" viewBox="0 0 1104.29 300" width="100%" xml:space="preserve" xmlns="http://www.w3.org/2000/svg" xmlns:vectornator="http://vectornator.io" xmlns:xlink="http://www.w3.org/1999/xlink">
<defs/>
<g id="Layer-1" vectornator:layerName="Layer 1">
<g opacity="1" vectornator:layerName="Group 4">
<g opacity="1" vectornator:layerName="Group 2">
<path d="M0 21.4285L0 64.2855C47.3386 64.2855 85.714 102.661 85.714 149.999C85.7141 197.338 47.3385 235.713 0 235.713L0 278.57C71.0078 278.57 128.571 221.007 128.571 149.999C128.571 78.9917 71.0078 21.4285 0 21.4285Z" fill="#000000" fill-rule="nonzero" opacity="1" stroke="none" vectornator:layerName="Curve 6"/>
<path d="M208.807 0C239.195 42.2259 257.142 94.0041 257.142 149.999C257.142 205.995 239.195 257.773 208.807 299.999L299.999 299.999L299.999 0L208.807 0Z" fill="#000000" fill-rule="nonzero" opacity="1" stroke="none" vectornator:layerName="Curve 7"/>
<path d="M0 107.142L0 192.856C23.6693 192.856 42.857 173.669 42.857 149.999C42.8573 126.33 23.6693 107.142 0 107.142Z" fill="#000000" fill-rule="nonzero" opacity="1" stroke="none" vectornator:layerName="Curve 8"/>
<path d="M82.9952 0C135.721 29.2373 171.428 85.4385 171.428 149.999C171.428 214.56 135.721 270.762 82.9952 299.999L152.973 299.999C190.88 261.345 214.285 208.416 214.285 149.999C214.285 91.583 190.88 38.6541 152.973 0L82.9952 0Z" fill="#000000" fill-rule="nonzero" opacity="1" stroke="none" vectornator:layerName="Curve 9"/>
</g>
</g>
<g opacity="1" vectornator:layerName="Group 3">
<path d="M385.712 192.856L385.712 112.768L429.455 112.768C437.095 112.768 443.893 113.852 449.849 116.019C455.805 118.186 460.849 121.136 464.98 124.867C469.112 128.599 472.258 132.867 474.419 137.672C476.581 142.478 477.661 147.524 477.661 152.812C477.661 158.177 476.581 163.265 474.419 168.076C472.258 172.888 469.096 177.157 464.932 180.882C460.769 184.607 455.709 187.534 449.754 189.663C443.798 191.792 437.032 192.856 429.455 192.856L385.712 192.856ZM408.365 178.403L404.781 173.33L428.883 173.33C433.268 173.33 437.057 172.732 440.248 171.537C443.439 170.343 446.061 168.75 448.114 166.761C450.166 164.771 451.695 162.572 452.7 160.163C453.705 157.755 454.207 155.304 454.207 152.812C454.207 150.333 453.705 147.893 452.7 145.49C451.695 143.087 450.166 140.888 448.114 138.893C446.061 136.897 443.439 135.298 440.248 134.097C437.057 132.896 433.268 132.295 428.883 132.295L404.438 132.295L408.365 127.451L408.365 178.403Z" fill="#000000" fill-rule="nonzero" opacity="1" stroke="none"/>
<path d="M495.49 192.856L535.571 112.768L555.708 112.768L595.562 192.856L572.508 192.856L550.198 148.77C549.321 147.003 548.523 145.353 547.804 143.821C547.086 142.289 546.45 140.805 545.897 139.369C545.344 137.933 544.826 136.531 544.343 135.164C543.861 133.797 543.41 132.421 542.99 131.037L547.699 131.017C547.268 132.466 546.791 133.912 546.27 135.355C545.748 136.797 545.176 138.243 544.554 139.693C543.931 141.142 543.26 142.62 542.541 144.126C541.823 145.632 541.057 147.206 540.244 148.845L518.066 192.856L495.49 192.856ZM514.444 180.766L521.556 164.768L569.705 164.768L572.698 180.766L514.444 180.766Z" fill="#000000" fill-rule="nonzero" opacity="1" stroke="none"/>
<path d="M620.904 192.856L620.904 112.768L642.299 112.768L697.179 166.122L693.632 164.96C693.186 161.718 692.83 158.766 692.563 156.103C692.296 153.44 692.086 150.97 691.934 148.694C691.781 146.419 691.664 144.248 691.582 142.182C691.499 140.116 691.439 138.06 691.401 136.013C691.363 133.966 691.344 131.811 691.344 129.549L691.344 112.768L713.234 112.768L713.234 192.856L691.61 192.856L633.718 135.613L640.506 137.633C640.723 138.625 640.939 139.74 641.155 140.98C641.37 142.219 641.577 143.659 641.774 145.299C641.971 146.939 642.15 148.874 642.309 151.105C642.468 153.336 642.588 155.933 642.671 158.895C642.753 161.857 642.794 165.258 642.794 169.096L642.794 192.856L620.904 192.856Z" fill="#000000" fill-rule="nonzero" opacity="1" stroke="none"/>
<path d="M754.365 192.856L754.365 173.464L776.255 173.464L776.255 132.161L754.365 132.161L754.365 112.768L820.799 112.768L820.799 132.161L798.909 132.161L798.909 173.464L820.799 173.464L820.799 192.856L754.365 192.856Z" fill="#000000" fill-rule="nonzero" opacity="1" stroke="none"/>
<path d="M849.059 192.856L889.141 112.768L909.277 112.768L949.132 192.856L926.078 192.856L903.768 148.77C902.891 147.003 902.093 145.353 901.374 143.821C900.655 142.289 900.02 140.805 899.467 139.369C898.914 137.933 898.396 136.531 897.913 135.164C897.43 133.797 896.979 132.421 896.56 131.037L901.269 131.017C900.837 132.466 900.361 133.912 899.839 135.355C899.318 136.797 898.746 138.243 898.123 139.693C897.5 141.142 896.83 142.62 896.111 144.126C895.393 145.632 894.627 147.206 893.814 148.845L871.636 192.856L849.059 192.856ZM868.014 180.766L875.126 164.768L923.275 164.768L926.268 180.766L868.014 180.766Z" fill="#000000" fill-rule="nonzero" opacity="1" stroke="none"/>
<path d="M974.474 192.856L974.474 112.768L997.127 112.768L997.127 173.33L1048 173.33L1048 192.856L974.474 192.856Z" fill="#000000" fill-rule="nonzero" opacity="1" stroke="none"/>
<path d="M1079.83 154.72L1073 146.711C1076.98 144.638 1080.16 142.401 1082.55 139.998C1084.94 137.596 1086.14 135.46 1086.14 133.591C1086.14 132.485 1085.89 131.529 1085.38 130.721C1084.88 129.914 1083.7 129.04 1081.85 128.099C1080.05 127.235 1078.28 126.025 1076.52 124.467C1074.76 122.909 1073.88 120.675 1073.88 117.765C1073.88 114.18 1075.2 111.513 1077.86 109.765C1080.52 108.017 1083.74 107.142 1087.51 107.142C1090.36 107.142 1093.06 107.962 1095.61 109.602C1098.17 111.242 1100.25 113.442 1101.87 116.201C1103.48 118.96 1104.29 122.055 1104.29 125.488C1104.29 128.411 1103.6 131.338 1102.22 134.268C1100.84 137.198 1099 140.004 1096.69 142.687C1094.39 145.37 1091.77 147.744 1088.85 149.809C1085.92 151.874 1082.91 153.511 1079.83 154.72Z" fill="#000000" fill-rule="nonzero" opacity="1" stroke="none" vectornator:layerName="Curve 1"/>
</g>
</g>
</svg>
